<svg width="1200" height="600" viewBox="0 0 1200 600" fill="none" xmlns="http://www.w3.org/2000/svg">
<g clip-path="url(#clip0_752_171)">
<rect width="1200" height="600" rx="32" fill="#ECFD21"/>
<g opacity="0.4">
<path d="M1189.81 355.29C1189.81 462.239 1119.26 559.104 1005.11 629.244C890.967 699.382 733.263 742.771 559.054 742.771C384.846 742.771 227.141 699.382 112.997 629.244C-1.15086 559.104 -71.7007 462.239 -71.7007 355.29C-71.7007 248.34 -1.15086 151.475 112.997 81.3351C227.141 11.1973 384.846 -32.1919 559.054 -32.1919C733.263 -32.1919 890.967 11.1973 1005.11 81.3351C1119.26 151.475 1189.81 248.34 1189.81 355.29Z" stroke="black" stroke-opacity="0.7" stroke-width="0.5"/>
<path d="M1078.76 385.412C1078.76 492.362 1008.21 589.227 894.062 659.367C779.918 729.505 622.214 772.894 448.005 772.894C273.796 772.894 116.092 729.505 1.94797 659.367C-112.2 589.227 -182.75 492.362 -182.75 385.412C-182.75 278.463 -112.2 181.598 1.94797 111.458C116.092 41.3199 273.796 -2.06934 448.005 -2.06934C622.214 -2.06934 779.918 41.3199 894.062 111.458C1008.21 181.598 1078.76 278.463 1078.76 385.412Z" stroke="black" stroke-opacity="0.7" stroke-width="0.5"/>
<path d="M1256.75 493.737C1256.75 600.687 1186.2 697.551 1072.05 767.692C957.908 837.829 800.204 881.219 625.995 881.219C451.787 881.219 294.082 837.829 179.938 767.692C65.7901 697.551 -4.75977 600.687 -4.75977 493.737C-4.75977 386.787 65.7901 289.923 179.938 219.782C294.082 149.645 451.787 106.255 625.995 106.255C800.204 106.255 957.908 149.645 1072.05 219.782C1186.2 289.923 1256.75 386.787 1256.75 493.737Z" stroke="black" stroke-opacity="0.7" stroke-width="0.5"/>
<path d="M1256.75 202.732C1256.75 309.681 1186.2 406.546 1072.05 476.686C957.908 546.824 800.204 590.213 625.995 590.213C451.787 590.213 294.082 546.824 179.938 476.686C65.7901 406.546 -4.75977 309.681 -4.75977 202.732C-4.75977 95.7819 65.7901 -1.08278 179.938 -71.223C294.082 -141.361 451.787 -184.75 625.995 -184.75C800.204 -184.75 957.908 -141.361 1072.05 -71.223C1186.2 -1.08278 1256.75 95.7819 1256.75 202.732Z" stroke="black" stroke-opacity="0.7" stroke-width="0.5"/>
</g>
</g>
<defs>
<clipPath id="clip0_752_171">
<rect width="1200" height="600" rx="32" fill="white"/>
</clipPath>
</defs>
</svg>
