<svg width="40" height="40" viewBox="0 0 40 40" fill="none" xmlns="http://www.w3.org/2000/svg">
<g clip-path="url(#clip0_884_62)">
<rect width="40" height="40" rx="20" fill="#E0F01F"/>
<path fill-rule="evenodd" clip-rule="evenodd" d="M16.3586 4.89697H17.0214V5.56573H16.3586V4.89697ZM17.0214 6.90325H19.6724V7.57201H20.3352V6.90325H21.6607V7.57201H20.998V8.24077H20.3352V9.5783H19.6724V8.90954H19.0097V8.24077H18.3469V7.57201H17.0214V6.90325ZM19.0097 8.90954V9.5783H18.3469V8.90954H19.0097ZM26.3001 17.6034V16.9347H25.6373V16.2659H24.9746V14.2596H24.3118V13.5909H22.9863V12.9221H19.6724V12.2533H20.3352V11.5846H19.6724V10.9158H20.3352V9.5783H20.998V8.24077H21.6607V7.57201H22.3235V6.90325H22.9863V7.57201H23.649V8.24077H24.3118V8.90954H25.6373V9.5783H26.9629V10.2471H27.6256V10.9158H28.9512V13.5909H28.2884V16.2659H27.6256V17.6034H26.3001ZM26.9629 14.2596H26.3001V13.5909H26.9629V14.2596ZM26.9629 13.5909V12.9221H27.6256V13.5909H26.9629ZM25.6373 12.2533V11.5846H26.9629V10.9158H25.6373V11.5846H24.9746V12.2533H25.6373ZM22.9863 12.2533V11.5846H22.3235V10.2471H21.6607V11.5846H22.3235V12.2533H22.9863ZM24.3118 10.2471V9.5783H23.649V10.2471H24.3118ZM25.6373 7.57201H26.3001V8.24077H25.6373V7.57201ZM11.0564 8.90954H11.7192V9.5783H11.0564V8.90954ZM16.3586 8.90954H15.6958V9.5783H16.3586V10.2471H17.0214V9.5783H16.3586V8.90954ZM14.3703 10.2471H13.7075V10.9158H14.3703V10.2471ZM30.2767 10.2471H30.9395V10.9158H30.2767V10.2471ZM15.0331 11.5846H15.6958V12.2533H15.0331V11.5846Z" fill="#222034"/>
<path fill-rule="evenodd" clip-rule="evenodd" d="M17.0201 13.5908V14.2595H15.6946H15.0318H14.3691V14.9283V16.9346H13.7063V23.6222H14.3691V24.9597H15.0318V25.6285H15.6946V24.9597H16.3574V26.2972H17.0201V26.966H17.6829V26.2972H19.6712V26.966H20.334V24.9597H20.9967V26.966H22.3223V26.2972H22.9851V24.9597H23.6478V24.2909H24.3106V23.6222H24.9734V22.9534H26.2989V22.2847H27.6244V21.6159H28.2872V18.9409H27.6244H26.9617H26.2989V17.6033H24.9734V16.2658H24.3106V14.2595H22.9851H21.6595H19.6712V13.5908H17.0201ZM19.6712 24.9597H20.334V24.2909H19.6712V23.6222H17.0201V24.2909H16.3574V24.9597H17.0201V25.6285H19.6712V24.9597ZM19.6712 24.9597H17.0201V24.2909H19.6712V24.9597ZM21.6595 22.9534V23.6222H20.9967V22.9534H21.6595ZM21.6595 21.6159H22.3223V20.9471H23.6478V21.6159H24.3106V22.2847H22.9851V22.9534H21.6595V21.6159ZM21.6595 21.6159H20.9967V20.2784H20.334V20.9471H19.6712V19.6096H22.3223V20.2784H21.6595V21.6159ZM17.0201 22.9534H17.6829V21.6159H18.3457V20.9471H17.6829V21.6159H17.0201V22.9534ZM15.6946 22.2847V22.9534H14.3691V22.2847H15.6946ZM26.9617 20.9471V21.6159H26.2989V20.9471V20.2784V19.6096H27.6244V20.9471H26.9617ZM15.6946 21.6159H16.3574V20.2784H17.0201V19.6096H14.3691V20.9471H15.0318V20.2784H15.6946V21.6159ZM22.9851 18.9409V18.2721H22.3223V17.6033H21.6595V16.2658H20.9967V15.597H20.334V14.9283H17.6829V15.597H15.6946V16.9346H16.3574V17.6033H15.0318V18.2721H14.3691V18.9409H16.3574H17.0201H17.6829V16.9346H19.0084V17.6033H19.6712V18.9409H20.334H20.9967H22.9851ZM18.3457 28.9723V29.641H17.6829V30.9785H18.3457V31.6473H19.0084V32.3161H19.6712V31.6473H20.334V29.641H20.9967V30.3098H21.6595V28.9723H18.3457Z" fill="#EBAC84"/>
<path fill-rule="evenodd" clip-rule="evenodd" d="M15.6953 13.5908H17.0208V14.2595H15.6953V13.5908ZM19.6719 13.5908V14.2595H21.6602V13.5908H19.6719ZM24.9741 16.9346H25.6368V17.6033H24.9741V16.9346ZM15.0325 18.2721V18.9409H16.3581V18.2721H15.0325ZM20.9974 18.2721V18.9409H22.323V18.2721H20.9974ZM15.0325 19.6096H14.3698V20.2784H15.0325V19.6096ZM19.6719 19.6096H20.3347V20.2784H19.6719V19.6096ZM17.6836 22.2847H17.0208V22.9534H17.6836V22.2847ZM20.9974 22.9534H21.6602V23.6222H20.9974V22.9534ZM24.3113 24.2909H23.6485V24.9597H22.9858V25.6285H23.6485V24.9597H24.3113V24.2909ZM17.0208 28.3035V30.3098H17.6836V29.641H18.3464V28.9723H21.6602V28.3035H17.0208Z" fill="#DF8A6E"/>
<path fill-rule="evenodd" clip-rule="evenodd" d="M16.3542 28.9727H15.6914V30.979H15.0286V32.9853H16.3542V32.3165H17.6797V30.979H17.0169V30.3102H16.3542V28.9727ZM22.3191 28.9727V30.3102H21.6563V30.979H20.9935V31.6478H20.3308V32.3165H21.6563V32.9853H22.9818V33.6541H20.9935V34.3228H20.3308V34.9916H19.0052V37.6666H18.3425V34.3228H19.0052V33.6541H18.3425V32.9853H17.6797V33.6541H17.0169V34.3228H15.6914V33.6541H15.0286V34.3228H14.3659V34.9916H15.0286V35.6603H14.3659V36.3291H13.7031V36.9979H14.3659V41.0104H15.0286V42.3479H14.3659V41.6792H13.7031V42.3479H14.3659V47.0293H13.7031V48.3668H14.3659V49.0355H15.0286V50.3731H14.3659V52.3793H17.6797V45.6917H18.3425V52.3793H19.668V51.0418H20.3308V52.3793H24.3074V51.7106H28.284V51.0418H30.9351V44.3542H31.5978V48.3668H32.2606V49.0355H32.9234V49.7043H33.5861V49.0355H34.9117V48.3668H35.5744V47.698H36.9V47.0293H37.5627V46.3605H38.2255V42.3479H37.5627V40.3417H36.9V38.3354H36.2372V36.9979H35.5744V35.6603H34.9117V34.9916H33.5861V34.3228H32.9234V33.6541H31.5978V32.9853H30.2723V32.3165H28.9468V31.6478H26.9585V30.979H25.6329V30.3102H24.3074V33.6541H23.6446V32.9853H22.9818V31.6478H23.6446V28.9727H22.3191ZM32.2606 34.9916H32.9234V34.3228H32.2606V34.9916ZM31.5978 37.6666V34.9916H32.2606V37.6666H31.5978ZM31.5978 37.6666V41.0104H30.9351V37.6666H31.5978ZM23.6446 33.6541H22.9818V34.3228H23.6446V33.6541ZM18.3425 37.6666H17.6797V44.3542H18.3425V42.3479H19.0052V40.3417H18.3425V37.6666ZM17.0169 47.0293H16.3542V45.6917H17.0169V47.0293ZM16.3542 45.6917H15.6914V45.023H16.3542V45.6917ZM19.0052 46.3605H19.668V45.023H19.0052V46.3605ZM19.668 39.6729H19.0052V38.3354H19.668V39.6729ZM22.3191 36.3291H21.6563V34.9916H22.3191V36.3291ZM11.7148 38.3354H11.052V39.0041H11.7148V39.6729H12.3776V39.0041H11.7148V38.3354ZM9.72649 47.698H10.3893V49.0355H9.72649V47.698ZM10.3893 49.0355H11.052V49.7043H10.3893V49.0355Z" fill="#B1D1E6"/>
<path fill-rule="evenodd" clip-rule="evenodd" d="M15.6959 29.6411H15.0331V30.9786H15.6959V29.6411ZM13.0448 30.3098V30.9786H11.0565V31.6474H9.73099V32.3161H8.40545V32.9849H7.74268V33.6536H6.41715V34.3224H5.75438V34.9912H5.09161V36.3287H4.42884V38.335H3.76607V39.6725H3.10331V42.3475H2.44054V44.3538H1.77777V47.0288H2.44054V47.6976H3.10331V48.3664H4.42884V49.0351H5.75438V49.7039H7.07992V50.3726H7.74268V51.0414H8.40545V45.6913H9.06822V51.0414H9.73099V51.7102H13.0448V52.3789H14.3704V50.3726H15.0331V49.0351H14.3704V48.3664H13.7076V47.0288H14.3704V42.3475H15.0331V41.01H14.3704V36.9974H13.7076V36.3287H14.3704V35.6599H15.0331V34.9912H14.3704V34.3224H15.0331V32.9849H14.3704V30.3098H13.0448ZM14.3704 42.3475H13.7076V41.6788H14.3704V42.3475ZM6.41715 35.6599H5.75438V34.9912H6.41715V35.6599ZM7.07992 36.3287H6.41715V35.6599H7.07992V36.3287ZM7.74268 37.6662H7.07992V36.3287H7.74268V37.6662ZM8.40545 39.6725H7.74268V37.6662H8.40545V39.6725ZM8.40545 39.6725H9.06822V41.6788H8.40545V39.6725ZM10.3938 49.7039H11.0565V49.0351H10.3938V47.6976H9.73099V49.0351H10.3938V49.7039ZM11.7193 39.6725H12.3821V39.0037H11.7193V38.335H11.0565V39.0037H11.7193V39.6725ZM32.2651 34.3224H32.9279V34.9912H32.2651V34.3224ZM31.6023 37.6662V34.9912H32.2651V37.6662H31.6023ZM31.6023 37.6662V41.01H30.9396V37.6662H31.6023ZM22.3236 34.9912H21.6608V36.3287H22.3236V34.9912ZM19.0097 40.3412H18.347V42.3475H19.0097V40.3412ZM30.9396 44.3538H31.6023V48.3664H32.2651V49.0351H32.9279V49.7039H32.2651V50.3726H30.9396V44.3538ZM15.6959 45.0226H16.3587V45.6913H15.6959V45.0226ZM16.3587 45.6913H17.0214V47.0288H16.3587V45.6913ZM20.3353 51.0414H19.6725V52.3789H20.3353V51.0414Z" fill="#7293BE"/>
<path fill-rule="evenodd" clip-rule="evenodd" d="M17.6836 14.9281H20.3347V15.5968H20.9974V16.2656H21.6602V17.6031H19.0091V16.9344H17.6836V17.6031H16.3581V16.9344H15.6953V15.5968H17.6836V14.9281ZM17.6836 20.9469H18.3464V21.6157H17.6836V20.9469ZM17.6836 21.6157V22.2847H17.0208V21.6157H17.6836ZM22.323 20.9469V21.6157H21.6602L21.6602 22.9534L22.9858 22.9532V22.2844H24.3113V21.6157H23.6485V20.9469H22.323ZM14.3698 22.2844H15.6953V22.9532H14.3698V22.2844ZM18.3464 26.297H19.0091V26.9658H18.3464V26.297ZM20.9974 29.6408H20.3347V30.9783H20.9974V29.6408Z" fill="#EFBB96"/>
<path fill-rule="evenodd" clip-rule="evenodd" d="M15.0318 13.5908H15.6946V14.2595H15.0318V13.5908ZM21.6595 13.5908H22.9851V14.2595H21.6595V13.5908ZM13.7063 14.9283H14.3691V16.9346H13.7063V14.9283ZM17.0201 18.2721H16.3574V18.9409H17.0201V18.2721ZM20.334 18.2721H20.9967V18.9409H20.334V18.2721ZM27.6244 18.2721H26.9617V18.9409H27.6244V18.2721ZM26.2989 20.2784L26.9617 20.2784V20.9471H26.2989V20.2784ZM17.0201 27.6347V28.3035H21.6595V27.6347H17.0201ZM19.0084 32.3161H19.6712V32.9848H19.0084V32.3161Z" fill="#A6553B"/>
<path fill-rule="evenodd" clip-rule="evenodd" d="M15.695 28.3035H16.3577V28.9723H15.695V28.3035ZM15.695 28.9723V29.641H15.0322V28.9723H15.695ZM22.3226 28.3035H22.9854V28.9723H22.3226V28.3035ZM17.6833 32.3161H18.346V32.9848H17.6833V32.3161ZM17.0205 33.6536V32.9848H17.6833V33.6536H17.0205ZM17.0205 33.6536V34.3224H16.3577V33.6536H17.0205ZM18.346 32.9848L19.0084 32.9848L19.0088 33.6536H18.346V32.9848ZM19.6712 32.9848L19.6716 34.3224H19.0088V34.9911H20.3343V34.3224H20.9971V33.6536H21.6599V32.9848L19.6712 32.9848ZM18.346 42.3475H17.6833V43.685H18.346V42.3475Z" fill="#2E4B6A"/>
<path fill-rule="evenodd" clip-rule="evenodd" d="M22.9852 31.6473H23.6479V32.9849H22.9852V31.6473ZM16.3575 32.3161H17.0203L17.0205 32.9848L16.3575 32.9849V32.3161ZM16.3575 32.9849L16.3577 33.6536L15.6947 33.6536V32.9849H16.3575ZM19.6713 38.3349H19.0086V39.6725H19.6713V38.3349ZM19.6713 45.0225H19.0086V46.3601H19.6713V45.0225Z" fill="#DEFBFB"/>
<path fill-rule="evenodd" clip-rule="evenodd" d="M15.6925 6.90349V7.57226H15.0298V8.24102H14.367H12.3787V8.90978V10.9161H11.7159V14.2599H12.3787V16.2661H13.0415V14.9286H13.7042V14.2599H14.367V13.5911H15.0298V12.9223H19.6692V12.2536H20.3319V11.5848H19.6692V10.9161H20.3319V9.57854H20.9947V8.24102H21.6575V7.57226H20.9947V8.24102H20.3319V9.57854H19.6692V8.90978H19.0064V8.24102H18.3436V7.57226H17.0181V6.90349H15.6925ZM19.0064 8.90978V9.57854H18.3436V8.90978H19.0064ZM15.0298 12.2536H15.6925V11.5848H15.0298V12.2536ZM14.367 10.2473V10.9161H13.7042V10.2473H14.367ZM17.0181 9.57854V10.2473H16.3553V9.57854H17.0181ZM16.3553 9.57854H15.6925V8.90978H16.3553V9.57854ZM19.6692 6.90349H20.3319V7.57226H19.6692V6.90349ZM24.3085 9.57854H23.6458V10.2473H24.3085V9.57854ZM22.3202 10.2473H21.6575V11.5848H22.3202V12.2536H22.983V11.5848H22.3202V10.2473ZM25.6341 10.9161V11.5848H24.9713V12.2536H25.6341V11.5848H26.9596V10.9161H25.6341ZM26.9596 12.9223H27.6224V13.5911H26.9596V12.9223ZM26.9596 13.5911V14.2599H26.2968V13.5911H26.9596Z" fill="#100E24"/>
<path fill-rule="evenodd" clip-rule="evenodd" d="M15.6922 5.56593H16.355V6.23469H17.6805V5.56593H18.3433V6.23469H21.6571V6.90345L20.3319 6.90349H19.6692H17.0181H15.6925L15.6922 5.56593ZM15.0298 7.57226L15.0295 6.90345L15.6925 6.90349V7.57226H15.0298ZM14.367 8.24102L14.3667 7.57221L15.0298 7.57226V8.24102H14.367ZM12.3787 8.90978V8.24102H14.367L14.3667 8.90973L12.3787 8.90978ZM11.7159 10.9161L11.7156 8.90973L12.3787 8.90978V10.9161H11.7159ZM11.7159 14.2599L11.0528 14.2598V10.916L11.7159 10.9161V14.2599ZM12.3787 16.2661L11.7156 16.2661L11.7159 14.2599H12.3787V16.2661ZM13.7042 14.9286H13.0415V16.2661H12.3787L12.3784 17.6036H13.0412V23.6225H13.7039V24.96H14.3667V25.6287H15.0295V26.2975H15.6922V26.9663H16.355V27.635H15.6922V28.3038H15.0295V28.9725H14.3667V29.6413H13.0412V30.3101H11.0528V30.9788H9.72731V31.6476H8.40178V32.3164H7.73901V32.9851H6.41347V33.6539H5.7507V34.3226H5.08794V34.9914H4.42517V36.3289H3.7624V38.3352H3.09963V39.6727H2.43686V42.3478H1.7741V44.354H1.11133V47.0291H1.7741V47.6978H2.43686V48.3666H3.09963V49.0354H4.42517V49.7041H5.7507V50.3729H7.07624V51.0416H7.73901V50.3729H7.07624V49.7041H5.7507V49.0354H4.42517V48.3666H3.09963V47.6978H2.43686V47.0291H1.7741V44.354H2.43686V42.3478H3.09963V39.6727H3.7624V38.3352H4.42517V36.3289H5.08794V34.9914H5.7507V35.6602H6.41347V36.3289H7.07624V37.6664H7.73901V39.6727H8.40178V41.679H9.06454V39.6727H8.40178V37.6664H7.73901V36.3289H7.07624V35.6602H6.41347V34.9914H5.7507V34.3226H6.41347V33.6539H7.73901V32.9851H8.40178V32.3164H9.72731V31.6476H11.0528V30.9788H13.0412V30.3101H14.3667V32.9851H15.0295V33.6539H15.6922V34.3226H16.355V33.6539H17.0178V32.9851H17.6805V32.3164H18.3433V32.9851H19.0061V34.3226H18.3433V37.6664H17.6805V42.3478H18.3433V37.6664H19.0061V34.3226H19.6688V32.9851H21.6571V33.6539H22.9827V34.3226H23.6454V33.6539H24.3082V30.3101H25.6337V30.9788H26.9593V31.6476H28.9476V32.3164H30.2731V32.9851H31.5987V33.6539H32.9242V34.3226H33.587V34.9914H34.9125V35.6602H35.5753V36.9977H36.238V38.3352H36.9008V40.3415H37.5636V42.3478H38.2263V46.3603H37.5636V47.0291H36.9008V47.6978H35.5753V48.3666H34.9125V49.0354H33.587V49.7041H32.2614V50.3729H30.9359V51.0416H28.2848V51.7104H24.3082V52.3792H18.3433V45.6916H17.6805V52.3792H13.0412V51.7104H10.3901V52.3792H13.0412V53.0479H24.3082V52.3792H28.2848V51.7104H30.9359V51.0416H32.2614V50.3729H33.587V49.7041H34.9125V49.0354H35.5753V48.3666H36.9008V47.6978H37.5636V47.0291H38.2263V46.3603H38.8891V42.3478H38.2263V40.3415H37.5636V38.3352H36.9008V36.9977H36.238V35.6602H35.5753V34.9914H34.9125V34.3226H33.587V33.6539H32.9242V32.9851H31.5987V32.3164H30.2731V31.6476H28.9476V30.9788H26.9593V30.3101H25.6337V29.6413H24.3082V28.9725H23.6454V28.3038H22.9827V27.635H22.3199V26.9663H22.9827V26.2975H23.6454V25.6287H24.3082V24.96H24.971V23.6225H26.2965V22.9537H27.622V22.2849H28.2848V21.6162H28.9476V18.2724H28.2848V16.2661H28.9476V13.5911H29.6104V11.5848H30.2731V10.916H28.9476V10.2473H27.622V9.57849H26.9593V8.90973H25.6337V8.24097H24.3082V7.57221H23.6454V6.90345H22.9827V6.23469H22.3199V6.90345H21.6571L21.6575 7.57226L22.3199 7.57221V6.90345H22.9827V7.57221H23.6454V8.24097H24.3082V8.90973H25.6337V9.57849H26.9593V10.2473H27.622V10.916H28.9476V13.5911H28.2848V16.2661H27.622V17.6036H26.2965V16.9349H25.6337V16.2661H24.971V14.2598H24.3082V13.5911H22.9827V12.9223L19.6692 12.9223H15.0298V13.5911H14.367V14.2599H13.7042V14.9286ZM13.7042 14.9286L13.7039 23.6225H14.3667V24.96H15.0295V25.6287H15.6922V24.96H16.355V26.2975H17.0178V26.9663H17.6805V26.2975H18.3433V26.9663H19.0061V26.2975H19.6688V26.9663H20.3316V24.96H20.9944V26.9663H22.3199V26.2975H22.9827V25.6287H23.6454V24.96H24.3082V23.6225H24.971V22.9537H26.2965V22.2849H27.622V21.6162H28.2848V18.9411H27.622V18.2724H26.9593V18.9411H26.2965V17.6036H25.6337V16.9349H24.971V16.2661H24.3082V14.2598H22.9827V13.5911L15.0298 13.5911L15.0295 14.2598L14.367 14.2599L14.3667 14.9286L13.7042 14.9286ZM19.6688 24.96H20.3316V24.2912H19.6688V23.6225H17.0178V24.2912H16.355V24.96H17.0178V25.6287H19.6688V24.96ZM19.6688 24.96H17.0178V24.2912H19.6688V24.96ZM21.6571 30.3101H22.3199V28.3038H22.9827V28.9725H23.6454V33.6539H22.9827V32.9851H21.6571V32.3164H20.3316V31.6476H20.9944V30.9788H21.6571V30.3101ZM17.0178 30.3101V27.635H21.6571V30.3101H20.9944V30.9788H20.3316V31.6476H19.6688V32.9851H19.0061V31.6476H18.3433V30.9788H17.6805V30.3101H17.0178ZM17.0178 30.3101H16.355V28.3038H15.6922V28.9725H15.0295V32.9851H15.6922V33.6539H16.355V32.9851H17.0178V32.3164H17.6805V30.9788H17.0178V30.3101ZM15.0295 17.6036H17.6805V18.9411H17.0178V18.2724H15.0295V17.6036ZM15.0295 18.2724V18.9411H14.3667V18.2724H15.0295ZM19.6688 17.6036H22.3199V18.2724H20.3316V18.9411H19.6688V17.6036ZM22.3199 18.2724H22.9827V18.9411H22.3199V18.2724ZM15.0295 19.6099H17.0178V20.2787H16.355V21.6162H15.6922V20.2787H15.0295V19.6099ZM15.0295 20.2787V20.9474H14.3667V20.2787H15.0295ZM20.3316 19.6099V20.2787H19.6688V20.9474H20.3316V20.2787H20.9944V21.6162H21.6571V20.2787H22.3199V19.6099H20.3316ZM26.2965 19.6099H27.622V20.9474H26.9593V20.2787H26.2965V19.6099ZM26.9593 20.9474V21.6162H26.2965V20.9474H26.9593ZM9.06454 45.6916H8.40178V51.0416H9.06454V51.7104H9.72731V51.0416H9.06454V45.6916ZM17.6805 43.6853H18.3433V44.354H17.6805V43.6853Z" fill="black"/>
</g>
<defs>
<clipPath id="clip0_884_62">
<rect width="40" height="40" rx="20" fill="white"/>
</clipPath>
</defs>
</svg>
